<!-- Generated by IcoMoon.io -->
<svg version="1.1" xmlns="http://www.w3.org/2000/svg" width="18" height="48" viewBox="0 0 18 48"><title>angle-left</title>
<path d="M16.795 14.571c0 0.214-0.107 0.455-0.268 0.616l-10.527 10.527 10.527 10.527c0.161 0.161 0.268 0.402 0.268 0.616s-0.107 0.455-0.268 0.616l-1.339 1.339c-0.161 0.161-0.402 0.268-0.616 0.268s-0.455-0.107-0.616-0.268l-12.482-12.482c-0.161-0.161-0.268-0.402-0.268-0.616s0.107-0.455 0.268-0.616l12.482-12.482c0.161-0.161 0.402-0.268 0.616-0.268s0.455 0.107 0.616 0.268l1.339 1.339c0.161 0.161 0.268 0.375 0.268 0.616z"></path>
</svg>
