<!-- Generated by IcoMoon.io -->
<svg version="1.1" xmlns="http://www.w3.org/2000/svg" width="16" height="48" viewBox="0 0 16 48"><title>angle-right</title>
<path d="M15.938 25.714c0 0.214-0.107 0.455-0.268 0.616l-12.482 12.482c-0.161 0.161-0.402 0.268-0.616 0.268s-0.455-0.107-0.616-0.268l-1.339-1.339c-0.161-0.161-0.268-0.375-0.268-0.616 0-0.214 0.107-0.455 0.268-0.616l10.527-10.527-10.527-10.527c-0.161-0.161-0.268-0.402-0.268-0.616s0.107-0.455 0.268-0.616l1.339-1.339c0.161-0.161 0.402-0.268 0.616-0.268s0.455 0.107 0.616 0.268l12.482 12.482c0.161 0.161 0.268 0.402 0.268 0.616z"></path>
</svg>
