<!-- Generated by IcoMoon.io -->
<svg version="1.1" xmlns="http://www.w3.org/2000/svg" width="54" height="48" viewBox="0 0 54 48"><title>books</title>
<path d="M10.5 6h-9c-0.825 0-1.5 0.675-1.5 1.5v33c0 0.825 0.675 1.5 1.5 1.5h9c0.825 0 1.5-0.675 1.5-1.5v-33c0-0.825-0.675-1.5-1.5-1.5zM9 15h-6v-3h6v3z"></path>
<path d="M25.5 6h-9c-0.825 0-1.5 0.675-1.5 1.5v33c0 0.825 0.675 1.5 1.5 1.5h9c0.825 0 1.5-0.675 1.5-1.5v-33c0-0.825-0.675-1.5-1.5-1.5zM24 15h-6v-3h6v3z"></path>
<path d="M35.864 8.319l-8.037 4.050c-0.737 0.371-1.036 1.278-0.665 2.014l13.499 26.791c0.371 0.737 1.278 1.036 2.014 0.665l8.037-4.050c0.737-0.371 1.036-1.278 0.665-2.014l-13.499-26.791c-0.371-0.737-1.278-1.036-2.014-0.665z"></path>
</svg>
