<!-- Generated by IcoMoon.io -->
<svg version="1.1" xmlns="http://www.w3.org/2000/svg" width="48" height="48" viewBox="0 0 48 48"><title>bullhorn</title>
<path d="M48 20.121c0-9.418-2.756-17.060-6.163-17.12 0.014-0 0.027-0.001 0.041-0.001h-3.888c0 0-9.131 6.86-22.276 9.551-0.401 2.123-0.658 4.653-0.658 7.57s0.256 5.447 0.658 7.57c13.145 2.691 22.276 9.551 22.276 9.551h3.888c-0.014 0-0.027-0.001-0.041-0.002 3.408-0.060 6.163-7.701 6.163-17.12zM40.539 34.652c-0.44 0-0.916-0.457-1.16-0.729-0.592-0.659-1.162-1.686-1.649-2.969-1.090-2.87-1.691-6.718-1.691-10.834s0.6-7.964 1.691-10.834c0.487-1.283 1.058-2.309 1.649-2.969 0.244-0.272 0.72-0.729 1.16-0.729s0.916 0.457 1.16 0.729c0.592 0.659 1.162 1.686 1.649 2.969 1.090 2.87 1.691 6.718 1.691 10.834s-0.6 7.964-1.691 10.834c-0.487 1.283-1.058 2.309-1.649 2.969-0.244 0.272-0.72 0.729-1.16 0.729zM11.804 20.121c0-2.435 0.179-4.801 0.518-6.989-2.221 0.307-4.169 0.484-6.578 0.484-3.143 0-3.143 0-3.143 0l-2.6 4.438v4.133l2.6 4.438c0 0 0 0 3.143 0 2.409 0 4.358 0.177 6.578 0.484-0.339-2.187-0.518-4.554-0.518-6.989zM17.257 30.102l-6-1.149 3.836 15.072c0.199 0.78 0.972 1.174 1.72 0.874l5.557-2.224c0.747-0.299 1.047-1.123 0.665-1.832l-5.779-10.742zM40.539 25.722c-0.17 0-0.353-0.176-0.447-0.281-0.228-0.254-0.448-0.65-0.636-1.144-0.42-1.106-0.652-2.589-0.652-4.176s0.231-3.069 0.652-4.176c0.188-0.494 0.408-0.89 0.636-1.144 0.094-0.105 0.277-0.281 0.447-0.281s0.353 0.176 0.447 0.281c0.228 0.254 0.448 0.65 0.636 1.144 0.42 1.106 0.652 2.589 0.652 4.176s-0.231 3.069-0.652 4.176c-0.188 0.494-0.408 0.89-0.636 1.144-0.094 0.105-0.277 0.281-0.447 0.281z"></path>
</svg>
