<!-- Generated by IcoMoon.io -->
<svg version="1.1" xmlns="http://www.w3.org/2000/svg" width="48" height="48" viewBox="0 0 48 48"><title>chevron-right-outline</title>
<path d="M20 40c-1.604 0-3.11-0.624-4.244-1.758-1.132-1.132-1.756-2.64-1.756-4.242s0.624-3.11 1.758-4.244l5.756-5.756-5.756-5.758c-1.134-1.132-1.758-2.64-1.758-4.242s0.624-3.11 1.758-4.244c2.266-2.264 6.218-2.266 8.486 0.002l14.242 14.242-14.244 14.242c-1.132 1.134-2.638 1.758-4.242 1.758zM20 12c-0.536 0-1.036 0.208-1.414 0.584-0.378 0.38-0.586 0.882-0.586 1.416s0.208 1.036 0.586 1.414l8.584 8.586-8.584 8.586c-0.378 0.378-0.586 0.878-0.586 1.414s0.208 1.036 0.586 1.414c0.756 0.758 2.074 0.756 2.828 0.002l11.416-11.416-11.416-11.414c-0.378-0.378-0.878-0.586-1.414-0.586z"></path>
</svg>
