<!-- Generated by IcoMoon.io -->
<svg version="1.1" xmlns="http://www.w3.org/2000/svg" width="48" height="48" viewBox="0 0 48 48"><title>chrome</title>
<path d="M12.107 20.932l-6.869-11.897c4.398-5.506 11.167-9.035 18.762-9.035 8.786 0 16.468 4.722 20.65 11.766h-19.583c-0.352-0.030-0.707-0.047-1.067-0.047-5.713 0-10.527 3.921-11.893 9.213zM32.592 15.234h13.756c1.066 2.715 1.652 5.672 1.652 8.766 0 13.164-10.598 23.85-23.727 23.997l9.815-17.001c1.382-1.986 2.193-4.398 2.193-6.996 0-3.43-1.414-6.535-3.689-8.766zM15.281 24c0-4.808 3.911-8.719 8.719-8.719s8.719 3.911 8.719 8.719c0 4.807-3.911 8.719-8.719 8.719s-8.719-3.911-8.719-8.719zM27.29 35.833l-6.871 11.901c-11.556-1.729-20.419-11.696-20.419-23.734 0-4.276 1.12-8.29 3.079-11.767l9.798 16.971c1.963 4.177 6.21 7.077 11.122 7.077 1.139 0 2.242-0.157 3.29-0.448z"></path>
</svg>
