<!-- Generated by IcoMoon.io -->
<svg version="1.1" xmlns="http://www.w3.org/2000/svg" width="48" height="48" viewBox="0 0 48 48"><title>cloud-download</title>
<path d="M41.766 16.878c-0.152-6.033-5.084-10.878-11.15-10.878-3.553 0-6.716 1.664-8.759 4.253-1.146-1.481-2.939-2.436-4.955-2.436-3.46 0-6.264 2.807-6.264 6.268 0 0.302 0.023 0.598 0.064 0.888-0.526-0.095-1.067-0.147-1.62-0.147-5.016-0-9.081 4.068-9.081 9.086s4.066 9.087 9.081 9.087h4.301l10.618 10.993 10.618-10.993 5.226-0.001c4.506-0.009 8.157-3.666 8.157-8.177 0-3.848-2.657-7.073-6.234-7.944zM24 39l-9-9h6v-9h6v9h6l-9 9z"></path>
</svg>
