<!-- Generated by IcoMoon.io -->
<svg version="1.1" xmlns="http://www.w3.org/2000/svg" width="48" height="48" viewBox="0 0 48 48"><title>file-pdf</title>
<path d="M39.469 27.632c-0.64-0.63-2.058-0.964-4.217-0.992-1.461-0.016-3.22 0.113-5.070 0.372-0.828-0.478-1.682-0.998-2.353-1.625-1.803-1.684-3.308-4.021-4.246-6.59 0.061-0.24 0.113-0.451 0.162-0.666 0 0 1.016-5.768 0.747-7.719-0.037-0.267-0.060-0.345-0.132-0.553l-0.088-0.227c-0.276-0.637-0.818-1.312-1.667-1.275l-0.512-0.016c-0.947 0-1.719 0.484-1.921 1.208-0.616 2.27 0.020 5.667 1.171 10.066l-0.295 0.717c-0.824 2.010-1.858 4.034-2.769 5.82l-0.119 0.232c-0.959 1.877-1.829 3.47-2.618 4.82l-0.814 0.431c-0.059 0.031-1.455 0.77-1.783 0.968-2.778 1.658-4.618 3.541-4.924 5.035-0.097 0.477-0.025 1.087 0.469 1.369l0.788 0.396c0.342 0.171 0.702 0.258 1.071 0.258 1.978 0 4.275-2.464 7.439-7.986 3.653-1.189 7.812-2.178 11.457-2.723 2.778 1.564 6.194 2.651 8.35 2.651 0.383 0 0.713-0.037 0.981-0.108 0.414-0.11 0.762-0.345 0.975-0.665 0.418-0.63 0.503-1.497 0.39-2.385-0.034-0.264-0.244-0.589-0.472-0.812zM9.921 38.159c0.361-0.986 1.789-2.936 3.9-4.667 0.133-0.108 0.46-0.414 0.759-0.699-2.208 3.521-3.687 4.925-4.659 5.365zM22.427 9.36c0.636 0 0.998 1.603 1.028 3.106s-0.321 2.558-0.757 3.338c-0.361-1.155-0.536-2.977-0.536-4.167 0 0-0.027-2.276 0.265-2.276v0zM18.696 29.883c0.443-0.793 0.904-1.629 1.375-2.516 1.148-2.171 1.873-3.87 2.413-5.266 1.074 1.954 2.411 3.615 3.984 4.946 0.196 0.166 0.404 0.333 0.622 0.499-3.197 0.633-5.961 1.402-8.394 2.337v0zM38.855 29.702c-0.195 0.122-0.752 0.192-1.111 0.192-1.158 0-2.591-0.529-4.6-1.391 0.772-0.057 1.479-0.086 2.114-0.086 1.162 0 1.506-0.005 2.641 0.285s1.15 0.878 0.955 1v0z"></path>
<path d="M43.022 10.738c-1.041-1.42-2.493-3.080-4.086-4.674s-3.254-3.045-4.674-4.086c-2.418-1.773-3.59-1.978-4.262-1.978h-23.25c-2.068 0-3.75 1.682-3.75 3.75v40.5c0 2.068 1.682 3.75 3.75 3.75h34.5c2.068 0 3.75-1.682 3.75-3.75v-29.25c0-0.672-0.205-1.845-1.978-4.262v0zM36.814 8.186c1.439 1.439 2.569 2.737 3.402 3.814h-7.217v-7.216c1.077 0.833 2.376 1.963 3.814 3.402v0zM42 44.25c0 0.407-0.343 0.75-0.75 0.75h-34.5c-0.406 0-0.75-0.343-0.75-0.75v-40.5c0-0.406 0.344-0.75 0.75-0.75 0 0 23.248-0 23.25 0v10.5c0 0.828 0.671 1.5 1.5 1.5h10.5v29.25z"></path>
</svg>
