<!-- Generated by IcoMoon.io -->
<svg version="1.1" xmlns="http://www.w3.org/2000/svg" width="48" height="48" viewBox="0 0 48 48"><title>finder</title>
<path d="M26.682 36.481c-0-0.002-0-0.004-0-0.006 0 0.002 0 0.004 0 0.006z"></path>
<path d="M26.747 38.181c-0.001-0.011-0.001-0.022-0.002-0.033 0 0.011 0.001 0.022 0.002 0.033z"></path>
<path d="M26.71 37.327c-0-0.008-0.001-0.017-0.001-0.025 0 0.009 0.001 0.017 0.001 0.025z"></path>
<path d="M45 0h-42c-1.65 0-3 1.35-3 3v42c0 1.65 1.35 3 3 3h23.148c0.002 0 0.004 0 0.006 0s0.004-0 0.006-0h18.84c1.65 0 3-1.35 3-3v-42c0-1.65-1.35-3-3-3zM9 10.5c0-0.828 0.672-1.5 1.5-1.5s1.5 0.672 1.5 1.5v3c0 0.828-0.672 1.5-1.5 1.5s-1.5-0.672-1.5-1.5v-3zM45 45h-17.581c-0.314-1.973-0.511-4.007-0.628-5.981 0 0.005 0 0.011 0.001 0.016-0.923 0.101-1.855 0.153-2.792 0.153-6.265 0-12.299-2.281-16.991-6.422-0.699-0.617-0.765-1.683-0.149-2.382s1.683-0.765 2.382-0.149c4.075 3.597 9.316 5.577 14.758 5.577 0.895 0 1.784-0.055 2.663-0.16-0.103-5.54 0.322-9.933 0.329-10.003 0.042-0.422-0.096-0.842-0.381-1.156s-0.688-0.493-1.112-0.493h-4.461c0.065-1.623 0.238-4.398 0.701-7.509 0.884-5.942 2.437-10.583 4.507-13.491h18.753v42z"></path>
<path d="M37.5 15c-0.828 0-1.5-0.672-1.5-1.5v-3c0-0.828 0.672-1.5 1.5-1.5s1.5 0.672 1.5 1.5v3c0 0.828-0.672 1.5-1.5 1.5z"></path>
<path d="M25.336 39.151c-0.171 0.009-0.342 0.016-0.514 0.021 0.171-0.005 0.343-0.012 0.514-0.021z"></path>
<path d="M24 39.188c0.22 0 0.439-0.003 0.659-0.009-0.219 0.006-0.439 0.009-0.659 0.009z"></path>
<path d="M25.269 35.775c0.037-0.002 0.074-0.004 0.11-0.006-0.037 0.002-0.073 0.004-0.11 0.006z"></path>
<path d="M24.613 35.803c0.050-0.001 0.101-0.003 0.151-0.005-0.050 0.002-0.101 0.004-0.151 0.005z"></path>
<path d="M41.14 30.384c-0.617-0.699-1.683-0.765-2.382-0.149-3.405 3.005-7.625 4.881-12.095 5.417 0.020 1.091 0.061 2.226 0.129 3.382 5.248-0.572 10.209-2.748 14.199-6.269 0.699-0.617 0.765-1.683 0.148-2.382z"></path>
<path d="M26.789 39.035c-0.216 0.023-0.432 0.044-0.649 0.062 0.217-0.018 0.433-0.039 0.649-0.062z"></path>
<path d="M26.039 39.105c-0.183 0.015-0.367 0.027-0.55 0.038 0.184-0.011 0.367-0.023 0.55-0.038z"></path>
</svg>
