<!-- Generated by IcoMoon.io -->
<svg version="1.1" xmlns="http://www.w3.org/2000/svg" width="48" height="48" viewBox="0 0 48 48"><title>google2</title>
<path d="M43.5 0h-39c-2.475 0-4.5 2.025-4.5 4.5v39c0 2.475 2.025 4.5 4.5 4.5h39c2.475 0 4.5-2.025 4.5-4.5v-39c0-2.475-2.025-4.5-4.5-4.5zM24.356 42c-9.947 0-18-8.053-18-18s8.053-18 18-18c4.856 0 8.925 1.772 12.056 4.706l-4.884 4.706c-1.341-1.284-3.675-2.775-7.172-2.775-6.15 0-11.156 5.091-11.156 11.362s5.016 11.362 11.156 11.362c7.125 0 9.797-5.119 10.209-7.762h-10.209v-6.169h16.997c0.15 0.9 0.281 1.8 0.281 2.981 0.009 10.284-6.881 17.588-17.278 17.588z"></path>
</svg>
