<!-- Generated by IcoMoon.io -->
<svg version="1.1" xmlns="http://www.w3.org/2000/svg" width="48" height="48" viewBox="0 0 48 48"><title>headphones</title>
<path d="M13.5 27h-3v21h3c0.825 0 1.5-0.675 1.5-1.5v-18c0-0.825-0.675-1.5-1.5-1.5z"></path>
<path d="M34.5 27c-0.825 0-1.5 0.675-1.5 1.5v18c0 0.825 0.675 1.5 1.5 1.5h3v-21h-3z"></path>
<path d="M48 24c0-13.255-10.745-24-24-24s-24 10.745-24 24c0 2.879 0.508 5.639 1.437 8.196-0.913 1.557-1.437 3.369-1.437 5.304 0 5.29 3.912 9.665 9 10.393v-20.785c-1.496 0.214-2.89 0.743-4.113 1.518-0.253-1.252-0.387-2.548-0.387-3.875 0-10.77 8.73-19.5 19.5-19.5s19.5 8.73 19.5 19.5c0 1.327-0.133 2.623-0.385 3.876-1.223-0.776-2.618-1.305-4.115-1.52v20.786c5.088-0.728 9-5.103 9-10.393 0-1.935-0.524-3.747-1.437-5.303 0.929-2.558 1.437-5.318 1.437-8.197z"></path>
</svg>
