<!-- Generated by IcoMoon.io -->
<svg version="1.1" xmlns="http://www.w3.org/2000/svg" width="48" height="48" viewBox="0 0 48 48"><title>lifebuoy</title>
<path d="M24 0c-13.255 0-24 10.745-24 24s10.745 24 24 24 24-10.745 24-24-10.745-24-24-24zM15 24c0-4.971 4.029-9 9-9s9 4.029 9 9-4.029 9-9 9-9-4.029-9-9zM43.405 32.038v0l-8.317-3.445c0.587-1.415 0.911-2.966 0.911-4.593s-0.324-3.178-0.911-4.593l8.317-3.445c1.027 2.476 1.595 5.19 1.595 8.038s-0.568 5.562-1.595 8.038v0zM32.038 4.595v0 0l-3.445 8.317c-1.415-0.587-2.966-0.911-4.593-0.911s-3.178 0.324-4.593 0.911l-3.445-8.317c2.476-1.027 5.191-1.595 8.038-1.595s5.562 0.568 8.038 1.595zM4.595 15.962l8.317 3.445c-0.587 1.415-0.911 2.966-0.911 4.593s0.324 3.178 0.911 4.593l-8.317 3.445c-1.027-2.476-1.595-5.19-1.595-8.038s0.568-5.562 1.595-8.038zM15.962 43.405l3.445-8.317c1.415 0.587 2.966 0.911 4.593 0.911s3.178-0.324 4.593-0.911l3.445 8.317c-2.476 1.027-5.19 1.595-8.038 1.595s-5.562-0.568-8.038-1.595z"></path>
</svg>
