<!-- Generated by IcoMoon.io -->
<svg version="1.1" xmlns="http://www.w3.org/2000/svg" width="48" height="48" viewBox="0 0 48 48"><title>tux</title>
<path d="M26.609 34.543c-3.841 1.787-7.414 1.768-9.813 1.595-2.862-0.207-5.164-0.99-6.175-1.675-0.623-0.422-1.471-0.259-1.893 0.365s-0.259 1.471 0.365 1.893c1.626 1.101 4.503 1.92 7.508 2.137 0.509 0.037 1.069 0.060 1.671 0.060 2.615 0 5.936-0.249 9.488-1.902 0.683-0.318 0.979-1.128 0.661-1.811s-1.129-0.978-1.811-0.661zM41.763 32.523c0.131-11.845 1.348-34.228-21.327-32.419-22.387 1.802-16.451 25.452-16.785 33.373-0.296 4.19-1.686 9.312-3.651 14.524h6.052c0.622-2.209 1.079-4.393 1.276-6.476 0.365 0.254 0.755 0.5 1.172 0.736 0.678 0.399 1.26 0.93 1.877 1.492 1.441 1.313 3.075 2.802 6.268 2.988 0.214 0.012 0.43 0.018 0.641 0.018 3.229 0 5.438-1.413 7.213-2.549 0.85-0.544 1.585-1.014 2.276-1.24 1.965-0.615 3.681-1.608 4.964-2.871 0.2-0.197 0.386-0.4 0.561-0.607 0.715 2.619 1.693 5.567 2.779 8.508h12.921c-3.102-4.792-6.302-9.486-6.237-15.477zM5.818 26.079c0-0.001 0-0.001-0-0.002-0.222-3.865 1.627-7.117 4.131-7.263s4.714 2.87 4.936 6.736c0 0.001 0 0.001 0 0.002 0.012 0.208 0.017 0.415 0.017 0.619-0.793 0.2-1.509 0.489-2.15 0.826-0.002-0.029-0.004-0.057-0.007-0.086 0-0 0-0.001 0-0.001-0.214-2.194-1.386-3.851-2.618-3.701s-2.057 2.051-1.843 4.245c0 0 0 0.001 0 0.001 0.093 0.957 0.369 1.811 0.752 2.458-0.095 0.075-0.365 0.272-0.675 0.499-0.233 0.17-0.517 0.378-0.858 0.63-0.932-1.223-1.571-2.98-1.685-4.964zM31.184 35.633c-0.089 2.043-2.761 3.965-5.23 4.736l-0.014 0.004c-1.027 0.333-1.942 0.919-2.911 1.539-1.628 1.042-3.312 2.119-5.743 2.119-0.16 0-0.323-0.005-0.484-0.014-2.227-0.13-3.269-1.080-4.588-2.282-0.696-0.634-1.415-1.29-2.343-1.834l-0.020-0.011c-2.002-1.13-3.244-2.535-3.324-3.759-0.039-0.608 0.231-1.135 0.805-1.566 1.249-0.936 2.085-1.548 2.638-1.953 0.615-0.449 0.8-0.585 0.938-0.715 0.098-0.093 0.205-0.196 0.319-0.308 1.146-1.114 3.064-2.979 6.007-2.979 1.8 0 3.792 0.694 5.914 2.058 1 0.651 1.869 0.951 2.971 1.331 0.757 0.261 1.616 0.558 2.765 1.050l0.019 0.008c1.072 0.441 2.339 1.245 2.281 2.575zM30.593 30.835c-0.206-0.104-0.421-0.203-0.644-0.295-1.036-0.443-1.867-0.744-2.556-0.984 0.38-0.745 0.617-1.674 0.639-2.683 0-0 0-0.001 0-0.001 0.053-2.455-1.185-4.448-2.765-4.452s-2.904 1.983-2.957 4.438c0 0 0 0.001 0 0.001-0.002 0.080-0.002 0.16-0.001 0.24-0.973-0.448-1.93-0.773-2.867-0.973-0.004-0.092-0.010-0.184-0.011-0.277 0-0.001 0-0.002 0-0.002-0.091-4.472 2.653-8.175 6.129-8.269s6.367 3.455 6.458 7.927c0 0.001 0 0.002 0 0.002 0.041 2.022-0.5 3.884-1.424 5.329z"></path>
</svg>
